<svg width="137" height="137" viewBox="0 0 137 137" fill="none" xmlns="http://www.w3.org/2000/svg">
<path d="M137 68.5C137 106.332 106.332 137 68.5 137C30.6685 137 0 106.332 0 68.5C0 30.6685 30.6685 0 68.5 0C106.332 0 137 30.6685 137 68.5ZM14.6421 68.5C14.6421 98.2449 38.7551 122.358 68.5 122.358C98.2449 122.358 122.358 98.2449 122.358 68.5C122.358 38.7551 98.2449 14.6421 68.5 14.6421C38.7551 14.6421 14.6421 38.7551 14.6421 68.5Z" fill="#1D6154"/>
<path d="M94.5 101.25C98.366 101.25 101.5 98.1262 101.5 94.2602C101.5 85.5897 101.5 70.6244 101.5 59.75C88.3198 59.75 67.75 59.75 67.75 59.75C67.75 59.75 67.75 59.75 67.75 59.75H34V94.25C34 98.116 37.134 101.25 41 101.25H76V86.5C76 83.4624 78.4624 81 81.5 81C84.5376 81 87 83.4624 87 86.5V101.25H94.5Z" fill="#B1663C"/>
<path d="M67.75 59.75C67.75 59.75 67.75 59.75 67.75 59.75C67.75 59.75 88.3198 59.75 101.5 59.75C92.338 50.588 79.6051 37.8551 72.6932 30.9431C69.9595 28.2095 65.5339 28.2161 62.8003 30.9497L34 59.75H67.75Z" fill="#B1663C"/>
</svg>
